<svg id="Layer_1" data-name="Layer 1" xmlns="http://www.w3.org/2000/svg" viewBox="0 0 1814.29 611.1"><defs><style>.cls-1{fill:#242122;}.cls-2{fill:#fdfdfd;}.cls-3{fill:#6ccb47;}.cls-4{fill:#fff;}</style></defs><title>sikkertrafik_logo</title><path class="cls-1" d="M640.84,595.18h-22.3c-12.84,0-24.35-11.51-24.35-24.35V534.62c0-12.85,11.51-24.36,24.35-24.36h22.3c12.84,0,24.35,11.51,24.35,24.36v36.21C665.19,583.67,653.68,595.18,640.84,595.18Z" transform="translate(-70 -258.55)"/><path class="cls-2" d="M1554.64,803.53c0-17.77.25-35.53-.11-53.29-.17-8.62,1.91-13.06,11.89-12.75,20.85.66,32.09-31.91-.77-31.48-10.54.14-12.33-4.51-9.72-13.14,3.8-12.58,13-17,25.39-17,4.87,0,10.74,2.09,12.26-6.22,3.77-20.69.39-25.19-20.3-25.14-4,0-8-.12-12,.28-32.74,3.38-45.1,15.66-45.92,48.18-.28,10.91-3.79,14.4-13.89,12.84-14.11-2.17-13.1,7.25-13.27,16.62s.12,17.4,13,15.21c11.5-2,14.25,3.49,14,14.2-.6,29.3-.2,58.61-.2,87.92s0,28.84,28.77,28.76c9.39,0,11.14-3.67,11-11.76C1554.37,839.06,1554.64,821.29,1554.64,803.53Z" transform="translate(-70 -258.55)"/><path class="cls-2" d="M128.53,868.31v-.06c16,0,32,.44,47.95-.12,17.6-.63,34.22-7.39,39.51-24.37,9.92-31.81,11.27-69.16-26.69-85.32-19.94-8.49-38.72-19.7-58.69-28.11-13.12-5.53-15.81-14.69-13.44-26.58,2.46-12.34,12.43-13.39,22.77-13.31,15.1.12,30.2.17,45.3,0,26.17-.29,21.32,3.18,22.29-22.94.33-9.16-2.42-12.64-11.91-12.46-25.75.49-51.52-.08-77.27.26-17.54.23-32.26,6.71-40.62,23-15.53,30.28-2.85,68.52,27.39,83,19.94,9.57,40.1,18.69,60.17,28,13.15,6.1,14,17.63,11.82,29.43-2.18,12.1-12.05,14.06-22.47,14.07q-30.64,0-61.29,0c-23.54,0-23,0-23.35,23.21-.16,10.44,3.73,12.82,13.24,12.4C98.31,867.81,113.43,868.31,128.53,868.31Z" transform="translate(-70 -258.55)"/><path class="cls-2" d="M366.14,770.62v69.3c0,29.94,0,29.64,30,28.59,7.84-.28,9.86-3.19,9.71-10.32-.32-16-.26-32,0-48,.07-3.89-2.53-9.36,4-11.06,5.81-1.51,8.62,2.22,11.74,6.33,10.47,13.79,22.6,26.5,31.65,41.13,11.21,18.15,25.87,25.42,46.48,21.68,4.09-.74,9.71,2.31,11.93-2.91,1.92-4.52-1.85-8.2-4.63-11.68-15.81-19.76-31-40-47.57-59.15-8.23-9.52-9-16.17-.32-25.88,14.16-15.88,27-32.92,40.07-49.78,2.78-3.6,8.64-9-.27-12.56-13.73-5.53-35.59,1.1-45.1,13.17s-19.47,24.22-28.81,36.62c-4,5.29-8,9.73-15.19,7.66-7.92-2.27-3.73-9-3.87-13.44-.57-17.3,0-34.64-.28-52-.42-29.38,5.09-25.57-26-26.39-10.19-.27-14.13,2.39-13.84,13.35C366.63,713.75,366.14,742.2,366.14,770.62Z" transform="translate(-70 -258.55)"/><path class="cls-2" d="M1736.27,769.24V839.8c0,30,0,29.68,29.6,28.72,8.08-.26,9.53-3.42,9.37-10.41-.36-16-.3-32,0-47.92.07-3.81-2.86-9.42,3.73-11,5.35-1.29,8.78,1.23,12.1,5.71,10.28,13.9,22.63,26.46,31.47,41.17,11.32,18.86,26.48,25.82,47.41,22.22,4-.69,9.7,2.58,11.65-3.08,1.57-4.56-2.23-8.14-5-11.63-16.11-20-31.73-40.5-48.39-60.08-7.43-8.74-7.63-14.86.06-23.65,14.3-16.32,27.5-33.62,40.74-50.83,2.69-3.5,8.82-8.69-.2-12.43-13.16-5.45-35.11.61-44.24,12-10.78,13.52-21.79,26.88-32.06,40.78-4.09,5.53-9.14,5.16-14.13,4.21-5.84-1.11-3.06-6.55-3.12-10-.28-18.63-.24-37.27-.11-55.91.2-27.62.27-27.2-27.11-27.3-9.54,0-12.08,3.21-11.94,12.28C1736.56,711.55,1736.27,740.4,1736.27,769.24Z" transform="translate(-70 -258.55)"/><path class="cls-2" d="M532.55,770.87v70.56c0,27.93,0,27.65,28.69,27.06,8-.17,11.14-2.48,10.89-10.68-.45-15.52-.41-31.08.07-46.59.13-4.08-3.53-10.29,3.89-12.11,5.67-1.4,8.77,2.18,11.9,6.33,10.17,13.44,22,25.83,30.69,40.12,11.58,19,26.92,26.63,48.48,22.77,3.75-.68,8.79,1.74,11-2.45,2.41-4.66-1.79-8.27-4.43-11.61-15.15-19.13-30.44-38.15-45.69-57.2-12.49-15.61-12.47-15.58-.32-30.7,12.51-15.56,25.07-31.07,37.31-46.83,3-3.83,8.33-8.9.62-13-10.25-5.51-35.83,1.06-43.46,10.64-10.77,13.53-21.71,27-32,40.81-4.05,5.43-8.88,7.36-14.8,5.74-6.33-1.73-3.06-7.46-3.14-11.26-.36-17.75.14-35.51-.22-53.25-.63-30.51,7-26.57-29.05-27.07-8-.11-10.66,2.7-10.53,10.9C532.83,712.28,532.55,741.58,532.55,770.87Z" transform="translate(-70 -258.55)"/><path class="cls-2" d="M1425.65,848.3c5.56,20.06,21.09,20.78,37.28,20,4.47-.23,11.44,1.82,10.67-5.88-.83-8.18,5.7-19.88-3.93-23.9-9.82-4.1-9.51-10-9.48-17.56q.09-32,0-63.93c-.07-30.09-14.46-46.61-44.15-52-19.07-3.45-38-1.89-57-.12-20.87,1.94-20.46,1.68-20.18,22.64.12,9.23,3.49,11.24,12.07,10.22,13.63-1.62,27.24-3.71,41.09-3.24,7.33.24,14,1.79,20.18,5.63,8.07,5,8.59,12.9,7.89,21.12s-8.22,5.49-12.52,6.68c-18.29,5-37.73,5.91-55,14.62-19.39,9.77-24.78,26.77-22.86,46.85,1.72,17.9,10.89,30.53,28.3,36.53C1382.7,874.47,1408.42,868.13,1425.65,848.3Z" transform="translate(-70 -258.55)"/><path class="cls-2" d="M1082.22,778.38c0,21.75-.15,43.51,0,65.26.23,28.21-4.19,24.53,25.55,25.74,14,.57,17-4.37,16.84-17.5-.74-49.26,0-98.54-.56-147.81-.14-11.3,2.07-16.18,14.42-15,11.88,1.15,24-.14,35.93.37,8.85.38,12.19-3.19,11.28-11.75a45.62,45.62,0,0,1,0-10.64c1.36-10.26-3.34-12.69-13-12.6q-69.91.63-139.82,0c-9.35-.08-13.15,2.79-12.1,12.13a63,63,0,0,1,0,12c-.62,8,2.7,11.17,10.84,10.89,13.3-.46,26.64.3,39.94-.28,8.22-.36,10.84,2.56,10.72,10.64C1082,726,1082.21,752.19,1082.22,778.38Z" transform="translate(-70 -258.55)"/><path class="cls-2" d="M1238.26,868.31c13.74,0,27.5-.29,41.23.11,7.52.21,9.94-2.78,10.27-10.1.91-20.81,1.12-20.86-19.39-20.87a85,85,0,0,0-9.31,0c-9.82,1.11-13.35-3-13.13-12.89.51-23.94.13-47.89.18-71.83,0-15.19,2.13-17,17.07-15,9.76,1.3,15.71,6.76,15.09,16.77-.64,10.6,4.38,13.12,13.61,12.22,4.83-.47,9.74-.1,14.62-.1,5.38,0,7.57-2.55,8.24-8,3.78-30.69-14.23-52.18-45.06-52.64-23.94-.36-47.89.09-71.84-.17-7.87-.08-13.8,1.62-11.75,10.9,1.7,7.74-7.59,21.82,10.67,20.93,7.92-.38,9.84,3.37,9.79,10.38-.19,26.6-.08,53.21-.07,79.81,0,4.13-.26,9.6-5.27,9.06-19.69-2.11-14.84,11.57-15.38,22.28-.35,6.89,2.2,9.49,9.19,9.3C1210.76,868,1224.51,868.3,1238.26,868.31Z" transform="translate(-70 -258.55)"/><path class="cls-2" d="M903.46,868.3c13.76,0,27.52,0,41.28,0,4,0,7.78.47,9.32-5,5.06-18-.55-25.81-19.19-25.81-4,0-8-.13-12,0-6.58.23-9.76-2.53-9.72-9.41.13-27.07,0-54.15.06-81.23,0-4.07.18-7.75,5.51-9.13,14.46-3.75,25.86,3.68,26.4,18.64.27,7.69,3.08,10.28,10.36,9.83,6.19-.38,12.43-.15,18.64-.07,5,.06,6.74-2.36,7.46-7.2,4.41-29.64-13.53-52.14-43.43-52.9-24.84-.63-49.71.09-74.56-.25-8.89-.13-12.55,3.69-11.08,12,1.37,7.69-6.13,20.72,10.8,19.88,7.14-.35,10.61,1.85,10.52,9.68-.28,26.63-.13,53.26-.08,79.9,0,4.73-.59,10.47-6.18,9.78-19-2.33-14.67,10.66-15.29,21.18-.51,8.67,3.63,10.49,11.21,10.26C876.82,868,890.14,868.31,903.46,868.3Z" transform="translate(-70 -258.55)"/><path class="cls-2" d="M309.79,772.15c0-18.64-.07-37.29,0-55.93,0-6-.79-10.54-8.45-10.42-14.65.23-29.3.1-43.95.07-5.54,0-8.06,2.59-7.84,8.18.19,4.87.22,9.77,0,14.64-.3,6.12,2.08,9.49,8.48,8.58,10.83-1.54,12.4,4.39,12.25,13.39-.39,24.41-.59,48.85.08,73.24.29,10.6-3.23,15.09-13.72,13.53-10.05-1.49-13.9,2.77-12.46,12.66a42.51,42.51,0,0,1,0,9.3c-.45,5.94,1.42,9.05,8.1,9,26.64-.22,53.27-.09,79.91-.1,3.21,0,6-.52,7.68-3.92,6.58-13.1-1-27.44-14.95-26.71-11.41.59-16.07-2.85-15.42-14.91C310.47,805.93,309.79,789,309.79,772.15Z" transform="translate(-70 -258.55)"/><path class="cls-2" d="M249.46,556.17c0-39.21-9.17-47.37-47.88-43.7a26.46,26.46,0,0,1-5.28.48c-8.75-1-8.85,4.59-8.8,10.86.06,8.68,6.19,5.46,10.42,5.47,7.44,0,14.83-2.75,22.34-.09,5.05,1.79,8.5,4.66,8.35,10.47-.15,6.09-5.19,4.89-8.75,5.72-5.6,1.31-11.33,2.1-16.84,3.67-10.23,2.89-19,7.44-20.38,19.75-1.09,9.92.46,19.07,9.81,24.17,10.22,5.59,21.8,5.92,31.74.37,5.42-3,7.54-5.36,12.67.27,4.42,4.84,11.93,4.15,17.45,1.53,3.6-1.7,3.76-8.79,1.5-10.77C246.14,575.87,250.55,565,249.46,556.17Z" transform="translate(-70 -258.55)"/><path class="cls-2" d="M400.92,561.76c4.88,0,9.81-.39,14.64.09,8.39.82,10.41-3,10.56-10.85.6-31.85-12.75-43.46-44.41-38.33-13.45,2.18-21.69,9.14-24.13,22.7-8,44.65,5.86,61.25,51,61,.89,0,1.78,0,2.66,0,6.06.24,11.72.49,11.55-8.41s-6.23-7.83-12-8c-8.73-.32-17.93,2-25.85-3.62-4.09-2.91-8.1-6.85-6.43-12.09,1.56-4.91,6.84-2,10.42-2.39C392.89,561.4,396.93,561.76,400.92,561.76Z" transform="translate(-70 -258.55)"/><path class="cls-2" d="M702.16,512.35v-.09c-6.65,0-13.29,0-19.94,0-3.91,0-7.22.83-7.68,5.39-.34,3.49-1.06,8.48,3,9.26,9.2,1.77,7.45,8.28,7.5,14.22.07,8.42.12,16.84,0,25.26-.08,5.44,1.87,11.56-6.94,13.2-4.82.89-3.86,6.35-3.49,10.24.42,4.37,3.51,5.68,7.51,5.67q18.61-.06,37.23,0c5.49,0,8-2.35,8-8,0-5.22-1.32-9.35-7.23-8.4-14.11,2.26-15-5.88-14.31-16.46.56-8.39.1-16.84.13-25.26,0-4-.57-8.83,5.08-9,4.81-.17,10.38.44,10.74,7.11.57,10.51,8.41,7.17,13.82,7.12,8.11-.07,5.45-6.93,5.16-11-.8-11.22-7.48-17.8-18.56-19C715.52,511.77,708.81,512.35,702.16,512.35Z" transform="translate(-70 -258.55)"/><path class="cls-2" d="M544.74,561.33c0,8,.3,16-.09,23.93-.35,7,1.38,10.59,9.47,10.45,7.74-.14,11.27-2.1,11-10.58-.55-15.5,0-31-.22-46.54-.09-6.65,1-11.43,9.3-10.79,5,.39,9.48.44,9.64-7.17.17-7.84-3.77-8.77-9.83-8.42-4.14.24-8.55,0-8.8-5.5s2.59-9.22,8.59-9.62a42.64,42.64,0,0,0,6.62-.48c4-.89,4.07-4.24,3.9-7.38-.16-2.9.73-6.1-3.08-7.93-14.57-7-34.86,3.78-36.28,19.9-.56,6.47-1.06,11.35-9.24,11.2-4.78-.08-5.34,3.65-5.27,7.51.06,3.68.06,7.78,5,7.74,10.35-.08,9.41,7,9.35,13.74S544.74,554.68,544.74,561.33Z" transform="translate(-70 -258.55)"/><path class="cls-2" d="M449.54,557.78c0,6.2.28,12.42-.06,18.6-.71,13.06,6.16,18.58,18.31,19,4.87.19,9.75,0,14.62.07,5.16.09,7-2.65,7-7.46s.09-9.56-6.47-9c-12.33,1-13.66-6.49-13.26-16a200.09,200.09,0,0,0-.05-22.58c-.63-8.83,2-13.7,11.75-12.58,5.41.62,8.14-1.62,8.1-7.53,0-5.48-1.77-8.68-7.62-8-9.18,1.05-13.36-2.65-12.13-12,1.06-8.09-3.48-9.4-10.36-9.53-7.25-.13-10.77,1.84-9.91,9.7.65,5.94.59,12.06-8.15,11.84-6-.16-5.74,4.05-5.87,8.17-.16,4.73,1.23,7.62,6.67,7.49,6.81-.15,7.61,4.47,7.47,9.9C449.4,544.48,449.53,551.13,449.54,557.78Z" transform="translate(-70 -258.55)"/><path class="cls-2" d="M311.69,665.53a23.92,23.92,0,0,0-23-24.19c-13.15-.38-24.83,11-24.81,24.09,0,12.8,10.71,23.86,23.38,24.19C300.83,690,311.66,679.3,311.69,665.53Z" transform="translate(-70 -258.55)"/><path class="cls-2" d="M218.36,508.05a17.78,17.78,0,0,0,18.29-17,17.06,17.06,0,0,0-17.45-17.59c-10.56.11-16.32,5.93-17.32,16.13A17,17,0,0,0,218.36,508.05Z" transform="translate(-70 -258.55)"/><path class="cls-3" d="M1121.67,408c-.08,82.34-66.53,148-149.91,147.55-87.52-.51-148.79-75.48-146.83-150.73,2.1-81,66.65-146.29,148.65-146.29C1056.09,258.55,1121.76,324.83,1121.67,408ZM1043,482s2.61-2.42,3.81-3.58c16.38-15.9,30.9-33,37.67-55.44,4.47-14.8,2.35-28.44-9-39.21s-25.21-11.84-39.65-6.45c-2.48.93-8,2.76-8,2.76s-2.08-1.7-3.94-3.07c-17.64-12.93-28.16-12.88-45.86-.77-2,1.38-5.11,3.3-5.11,3.3a53.81,53.81,0,0,1-4.94-3c-16.9-12-32-12.57-45-1.57a39,39,0,0,0-5,5l-6.7-2.53c-14.73-5.62-28.8-5.08-40.74,6.46s-12.66,25.8-8.08,40.67c6.58,21.39,20.39,38,35.92,53.51A56.23,56.23,0,0,0,903,482Zm-69.41,28.71q30,0,60,0c5.27,0,10.63,1.18,10.6-7.52,0-8.1-4.43-8.12-10.23-8.11q-60.63.15-121.27,0c-6.19,0-9.87.68-9.79,8.46s4.28,7.26,9.43,7.24C932.73,510.66,953.16,510.71,973.59,510.71Z" transform="translate(-70 -258.55)"/><path class="cls-1" d="M1551.35,868h-32.71a3.64,3.64,0,0,1-3.65-3.64c-.07-16.75-.29-86.76.24-112.47.08-3.48-.06-9.16-.15-12.4a2.57,2.57,0,0,0-2.57-2.49h-21.69a2.82,2.82,0,0,1-2.82-2.82V708.82a2.82,2.82,0,0,1,2.82-2.82h21.69a2.57,2.57,0,0,0,2.57-2.49c.08-2.8.22-7.38.3-10.49.82-32.52,13.18-44.8,45.92-48.18,4-.4,8-.27,12-.28,7.39,0,15.42.22,19.32.35a2.49,2.49,0,0,1,2.4,2.49v26.84a2.48,2.48,0,0,1-2.73,2.48c-3.28-.32-8.61-.8-11-.8-12.38,0-21.59,4.37-25.39,17-1,3.17-1.06,7.79-1,10.62a2.56,2.56,0,0,0,2.55,2.53c2.28,0,5.74,0,8.54,0,9-.12,63,0,63,0l5,31h-76.43a2.57,2.57,0,0,0-2.57,2.57V864.35A3.66,3.66,0,0,1,1551.35,868Z" transform="translate(-70 -258.55)"/><path class="cls-1" d="M563.54,595h-16.8a1.88,1.88,0,0,1-1.88-1.87c0-8.6-.14-44.57.13-57.78,0-1.78,0-4.7-.08-6.37a1.32,1.32,0,0,0-1.32-1.27H532.45a1.45,1.45,0,0,1-1.45-1.45v-13a1.45,1.45,0,0,1,1.45-1.45h11.14a1.32,1.32,0,0,0,1.32-1.27c0-1.44.11-3.8.15-5.4.43-16.7,6.77-23,23.6-24.74a60,60,0,0,1,6.15-.15c3.8,0,7.92.11,9.93.18a1.27,1.27,0,0,1,1.23,1.28v13.79a1.27,1.27,0,0,1-1.4,1.27c-1.69-.16-4.43-.41-5.63-.41-6.36,0-11.09,2.25-13.05,8.71a20.4,20.4,0,0,0-.52,5.45,1.31,1.31,0,0,0,1.31,1.3c1,0,12.68.15,16.27.2a1.05,1.05,0,0,1,1,1.06v13.59a1.07,1.07,0,0,1-1.07,1.07H566.74a1.32,1.32,0,0,0-1.32,1.31v64.1A1.88,1.88,0,0,1,563.54,595Z" transform="translate(-70 -258.55)"/><path class="cls-1" d="M129,868.31c-12.21,0-42.58-.2-53.77-.28A4.26,4.26,0,0,1,71,863.77V837.22A4.26,4.26,0,0,1,75.22,833c4.41,0,11.63-.08,18.61-.08q30.63,0,61.28,0C165.53,832.86,180,832,180,813c0-14-1.08-17.53-14.23-23.63-20.07-9.32-40.24-18.44-60.18-28C93.34,755.48,77.64,741.65,75,729c-5-24-5-32,3.21-50.68,8.36-16.31,23.07-22.79,40.61-23,22.11-.29,72-.3,85.65-.3a3.53,3.53,0,0,1,3.53,3.53v28a3.53,3.53,0,0,1-3.49,3.53c-12,.12-51.35.5-64.09.4C130.08,690.36,114,691,114,705c0,19,4.8,18.13,17.08,25.33C151,742,165.37,747.8,184.78,757.44,200,765,216.4,773.15,219,787c3,16,5,33-2,55-6,15-22.45,25.5-40,26.13-16,.56-32,.12-48,.12Z" transform="translate(-70 -258.55)"/><path class="cls-1" d="M370.5,673h31a4.49,4.49,0,0,1,4.5,4.5V764h13l42.08-54.24a9.73,9.73,0,0,1,7.68-3.76h33.12a3.49,3.49,0,0,1,2.75,5.63L450,782l63.53,80.35A3.49,3.49,0,0,1,510.8,868H477.69a9.73,9.73,0,0,1-7.61-3.67L419,800H406v63.5a4.49,4.49,0,0,1-4.5,4.5h-31a4.49,4.49,0,0,1-4.5-4.5v-186A4.49,4.49,0,0,1,370.5,673Z" transform="translate(-70 -258.55)"/><path class="cls-1" d="M536.5,673h31a4.49,4.49,0,0,1,4.5,4.5V764h13l42.08-54.24a9.73,9.73,0,0,1,7.68-3.76h33.12a3.49,3.49,0,0,1,2.75,5.63L616,782l63.53,80.35A3.49,3.49,0,0,1,676.8,868H643.69a9.73,9.73,0,0,1-7.61-3.67L585,800H572v63.5a4.49,4.49,0,0,1-4.5,4.5h-31a4.49,4.49,0,0,1-4.5-4.5v-186A4.49,4.49,0,0,1,536.5,673Z" transform="translate(-70 -258.55)"/><path class="cls-1" d="M1740.5,673h31a4.49,4.49,0,0,1,4.5,4.5V764h13l42.08-54.24a9.73,9.73,0,0,1,7.68-3.76h33.12a3.49,3.49,0,0,1,2.75,5.63L1820,782l63.53,80.35a3.49,3.49,0,0,1-2.73,5.65h-33.11a9.73,9.73,0,0,1-7.61-3.67L1789,800h-13v63.5a4.49,4.49,0,0,1-4.5,4.5h-31a4.49,4.49,0,0,1-4.5-4.5v-186A4.49,4.49,0,0,1,1740.5,673Z" transform="translate(-70 -258.55)"/><path class="cls-1" d="M732.32,800a2.46,2.46,0,0,0-2.46,2.35,44.48,44.48,0,0,0,.11,6.82c1.82,14.31,15.42,25.86,33.47,26.88,11.28.64,38.53.86,49.19.93a4.39,4.39,0,0,1,4.37,4.4V863.8a4.4,4.4,0,0,1-4.21,4.4c-13.4.57-55.26,1.92-73.89-2.6C707.71,858,691,837,690,804.63c0-10.63-1.88-39,1.41-58.44,3.49-20.53,15.54-33.43,35.18-39.1,21.37-6.17,43-6.69,64.16.73s32,23,32.34,45.39c.15,9.85,0,33.5-.06,42.87a4,4,0,0,1-3.95,3.92Zm49.43-28a3.28,3.28,0,0,0,3.29-3.27,98.75,98.75,0,0,0-.39-10.28c-1.12-9.67-1.24-17-11.65-21.45-11.2-4.85-26.47-5-36.55,3.64-6.55,5.62-6.79,21.77-6.59,28.43a3,3,0,0,0,3,2.93Z" transform="translate(-70 -258.55)"/><path class="cls-1" d="M378.11,560.06a1.25,1.25,0,0,0-1.24,1.19,22.15,22.15,0,0,0,.06,3.45c.91,7.23,7.79,13.06,16.91,13.58,5.69.32,19.46.43,24.84.46a2.23,2.23,0,0,1,2.21,2.23v11.32a2.23,2.23,0,0,1-2.13,2.23c-6.76.29-27.91,1-37.32-1.32-15.76-3.82-24.2-14.44-24.71-30.8,0-5.37-1-19.71.72-29.52,1.76-10.37,7.85-16.89,17.77-19.75,10.8-3.12,21.7-3.38,32.41.37S423.8,525.12,424,536.43c.07,5,0,16.92,0,21.65a2,2,0,0,1-2,2Zm25-14.14a1.67,1.67,0,0,0,1.66-1.65,50.65,50.65,0,0,0-.2-5.2c-.57-4.88-.63-8.56-5.89-10.83-5.66-2.45-13.37-2.53-18.46,1.84-3.31,2.84-3.43,11-3.33,14.36a1.53,1.53,0,0,0,1.53,1.48Z" transform="translate(-70 -258.55)"/><path class="cls-1" d="M1078.88,690h-54.76a3.12,3.12,0,0,1-3.12-3.12V658.12a3.12,3.12,0,0,1,3.12-3.12h158.76a3.12,3.12,0,0,1,3.12,3.12v28.76a3.12,3.12,0,0,1-3.12,3.12h-55.76a3.12,3.12,0,0,0-3.12,3.12V864.88a3.12,3.12,0,0,1-3.12,3.12h-35.76a3.12,3.12,0,0,1-3.12-3.12V693.12A3.12,3.12,0,0,0,1078.88,690Z" transform="translate(-70 -258.55)"/><path class="cls-1" d="M853,865V840a3,3,0,0,1,3-3h15.33a2.63,2.63,0,0,0,2.63-2.63V739.63a2.63,2.63,0,0,0-2.63-2.63H856a3,3,0,0,1-3-3V709a3,3,0,0,1,3-3c12.48-.12,60.65-.53,82.17,0,29.9.76,42.83,19,42.83,39-.15,1,0,17,0,19,0,1.36-1,2-2.36,2.06-1.06,0-22.47,0-30.57,0a3,3,0,0,1-3-3.06c0-2.42,0-5.73,0-8-.54-15-9-18-26-18h-3.37a2.63,2.63,0,0,0-2.63,2.63v94.74a2.63,2.63,0,0,0,2.63,2.63H952a3,3,0,0,1,3,3V865a3,3,0,0,1-3,3H856A3,3,0,0,1,853,865Z" transform="translate(-70 -258.55)"/><path class="cls-1" d="M675,593.47v-12.6a1.53,1.53,0,0,1,1.53-1.53h7.75a1.34,1.34,0,0,0,1.33-1.33V530.14a1.34,1.34,0,0,0-1.33-1.33h-7.75a1.54,1.54,0,0,1-1.53-1.53V514.67a1.53,1.53,0,0,1,1.52-1.54c6.3-.06,30.64-.27,41.52,0,15.1.39,21.63,9.61,21.63,19.71-.07.51,0,8.59,0,9.6,0,.69-.5,1-1.19,1-.53,0-11.35,0-15.45,0a1.53,1.53,0,0,1-1.52-1.55c0-1.22,0-2.9,0-4-.27-7.56-4.54-9.09-13.13-9.09h-1.7a1.33,1.33,0,0,0-1.33,1.33V578a1.33,1.33,0,0,0,1.33,1.33H725a1.53,1.53,0,0,1,1.54,1.53v12.6A1.54,1.54,0,0,1,725,595H676.53A1.54,1.54,0,0,1,675,593.47Z" transform="translate(-70 -258.55)"/><path class="cls-1" d="M1188,865V840a3,3,0,0,1,3-3h15.33a2.63,2.63,0,0,0,2.63-2.63V739.63a2.63,2.63,0,0,0-2.63-2.63H1191a3,3,0,0,1-3-3V709a3,3,0,0,1,3-3c12.48-.12,60.65-.53,82.17,0,29.9.76,42.83,19,42.83,39-.15,1,0,17,0,19,0,1.36-1,2-2.36,2.06-1.06,0-22.47,0-30.57,0a3,3,0,0,1-3-3.06c0-2.42,0-5.73,0-8-.54-15-9-18-26-18h-3.37a2.63,2.63,0,0,0-2.63,2.63v94.74a2.63,2.63,0,0,0,2.63,2.63H1287a3,3,0,0,1,3,3V865a3,3,0,0,1-3,3H1191A3,3,0,0,1,1188,865Z" transform="translate(-70 -258.55)"/><path class="cls-1" d="M313.19,838h20.94a2.88,2.88,0,0,1,2.87,2.87v24.26a2.88,2.88,0,0,1-2.87,2.87H246.61a2.61,2.61,0,0,1-2.61-2.61V840.61a2.61,2.61,0,0,1,2.61-2.61h19.62a3.76,3.76,0,0,0,3.77-3.76c0-12.57,0-81.76,0-95a2.2,2.2,0,0,0-2.21-2.2H253.24a3.24,3.24,0,0,1-3.24-3.24V709.24a3.24,3.24,0,0,1,3.24-3.24H307.6a2.34,2.34,0,0,1,2.35,2.39c-.05,2.26,0,108.9,0,126.42A3.21,3.21,0,0,0,313.19,838Z" transform="translate(-70 -258.55)"/><path class="cls-1" d="M139,546.26c8,11.62,27.56,39.44,32.68,46.83a1.22,1.22,0,0,1-1,1.91H151.8a3.45,3.45,0,0,1-2.83-1.47l-31.38-44.69A3.29,3.29,0,0,1,117,547V533.08a2.08,2.08,0,0,1,2.08-2.08h18.86a8.06,8.06,0,0,0,8.06-8.06V505.06a8.06,8.06,0,0,0-8.06-8.06H110.12a2.12,2.12,0,0,0-2.12,2.12v93.46a2.42,2.42,0,0,1-2.42,2.42H89.42A2.41,2.41,0,0,1,87,592.59c0-11.5,0-61.18,0-83.49,0-3.56,0-12.1,0-12.1H78.27A2.27,2.27,0,0,1,76,494.73V483.25A2.26,2.26,0,0,1,78.25,481c9.87-.09,49.69-.4,67.5.19,10.16.33,17.53,6.1,19.81,16.63a72.81,72.81,0,0,1,.14,30.37C163.32,539.59,160,544,139,546.26Z" transform="translate(-70 -258.55)"/><path class="cls-1" d="M448.61,528H437.54a1.54,1.54,0,0,1-1.54-1.54V513.54a1.54,1.54,0,0,1,1.54-1.54h11.07a1.39,1.39,0,0,0,1.39-1.39V492.54a1.54,1.54,0,0,1,1.54-1.54h16.92a1.54,1.54,0,0,1,1.54,1.54v18.07a1.39,1.39,0,0,0,1.39,1.39h16.07a1.54,1.54,0,0,1,1.54,1.54v12.92a1.54,1.54,0,0,1-1.54,1.54H471.39a1.38,1.38,0,0,0-1.39,1.38c0,5.66-.06,27.11-.33,33.61-.4,9.51.93,17,13.26,16,1.24-.1,3.2-.07,4.56,0A1.55,1.55,0,0,1,489,580.5v13.11a1.54,1.54,0,0,1-1.39,1.54,50.61,50.61,0,0,1-5.2.34c-4.87-.09-9.75.12-14.62-.07-12.15-.46-19-6-18.31-19,.3-5.51.48-39.64.51-47A1.37,1.37,0,0,0,448.61,528Z" transform="translate(-70 -258.55)"/><path class="cls-1" d="M311.69,665.53c0,13.77-10.86,24.45-24.42,24.09-12.67-.33-23.36-11.39-23.38-24.19,0-13.12,11.66-24.47,24.81-24.09A23.92,23.92,0,0,1,311.69,665.53Z" transform="translate(-70 -258.55)"/><path class="cls-1" d="M1683.19,838h20.94a2.88,2.88,0,0,1,2.87,2.87v24.26a2.88,2.88,0,0,1-2.87,2.87h-87.52a2.61,2.61,0,0,1-2.61-2.61V840.61a2.61,2.61,0,0,1,2.61-2.61h19.62a3.76,3.76,0,0,0,3.77-3.76c0-12.57,0-81.76,0-95a2.2,2.2,0,0,0-2.21-2.2h-14.55a3.24,3.24,0,0,1-3.24-3.24V709.24a3.24,3.24,0,0,1,3.24-3.24h54.36a2.34,2.34,0,0,1,2.35,2.39c0,2.26,0,108.9,0,126.42A3.21,3.21,0,0,0,1683.19,838Z" transform="translate(-70 -258.55)"/><path class="cls-1" d="M1681.69,665.53c0,13.77-10.86,24.45-24.42,24.09-12.67-.33-23.36-11.39-23.38-24.19,0-13.12,11.66-24.47,24.81-24.09A23.92,23.92,0,0,1,1681.69,665.53Z" transform="translate(-70 -258.55)"/><path class="cls-2" d="M1420.2,793.5c0,5.54,0,9.91,0,14.29-.18,23.21-8.48,31.07-31.58,29.65-9.25-.57-17.9-2.44-19-14.06s4.82-18.41,15.48-21.3C1396.11,799.09,1407.28,796.63,1420.2,793.5Z" transform="translate(-70 -258.55)"/><path class="cls-3" d="M1010.08,386.14c-8.54-5.14-17.58-4.17-24.23,3.44-6.92,7.93-8.49,19.59-1,27.24,3,3.07,5.35,5.61,5.35,5.61l-15.95,15.9c-.73.42-1.21.67-1.21.67l-16.62-16.57s2.35-2.54,5.34-5.61c7.46-7.65,5.89-19.31-1-27.24C954,382,945,381,936.46,386.14c-7.94,4.78-10.15,17.77-4.86,30.05,6.29,14.57,17.22,25.71,28.13,36.65a52.11,52.11,0,0,0,13.54,9.82,52,52,0,0,0,13.53-9.82c10.92-10.94,21.85-22.08,28.13-36.65C1020.23,403.91,1018,390.92,1010.08,386.14Z" transform="translate(-70 -258.55)"/><path class="cls-3" d="M949.76,465.77c-12.28,0-40.83,0-40.83,0a4.29,4.29,0,0,1-2.09-1.17C890,450,874.73,420.92,876.46,406.08c1.26-10.77,7.94-15.86,18.08-16.46C901.73,389.19,913,394,913,394a80.28,80.28,0,0,0,0,11c1.49,19,14.58,34.89,26.42,49.28C942.11,457.55,946,462,949.76,465.77Z" transform="translate(-70 -258.55)"/><path class="cls-3" d="M996.33,466c12.29,0,40.83-.05,40.83-.05a4.23,4.23,0,0,0,2.09-1.18c16.84-14.54,32.11-43.62,30.38-58.46-1.26-10.77-7.93-15.86-18.07-16.46-7.2-.43-18.47,4.38-18.47,4.38a80.28,80.28,0,0,1,0,11c-1.49,19-14.58,34.89-26.42,49.28C1004,457.78,1000.09,462.23,996.33,466Z" transform="translate(-70 -258.55)"/><path class="cls-1" d="M1426.92,852.12a2,2,0,0,0-3.53-.2c-5,8.85-12.57,15.54-22,16.13-15.9,1-25.51,1-37.61-.64a32.73,32.73,0,0,1-6.16-1.88c-17.47-6-26.67-18.69-28.39-36.65-1.93-20.15,3.47-37.21,22.92-47,15.67-7.89,57.57-14.68,65.63-15.93a2,2,0,0,0,1.62-1.59c.18-1,.41-2.44.54-3.86.7-8.25.18-16.16-7.92-21.19-6.21-3.86-12.89-5.41-20.25-5.65-13.89-.47-27.55,1.62-41.22,3.25-2.55.3-7.08.74-9.76,1a2,2,0,0,1-2.15-2V711.09a5.06,5.06,0,0,1,4.19-5c3.94-.69,10.08-1.66,15.85-2.16,19.09-1.78,38-3.34,57.16.12,29.79,5.38,44.23,22,44.3,52.15q.06,32.07,0,64.14c0,7.63-1.35,15.07,7.06,17.47a11.31,11.31,0,0,0,1.78.55,5.57,5.57,0,0,1,4.22,5.44v18.55a5.48,5.48,0,0,1-5.48,5.49h-5.33C1446.85,867.85,1433.3,867.93,1426.92,852.12ZM1420,795.33a2,2,0,0,0-2.44-1.92c-12,2.87-22.43,5.21-32.79,8-10.69,2.91-16.64,9.78-15.53,21.38s9.79,13.53,19.07,14.1c23.17,1.43,31.5-6.46,31.68-29.74C1420,803.46,1420,799.74,1420,795.33Z" transform="translate(-70 -258.55)"/><path class="cls-1" d="M232.69,587.29a1,1,0,0,0-1.79-.1c-2.54,4.5-6.39,7.9-11.18,8.2-8.08.51-13,.51-19.12-.33a17.36,17.36,0,0,1-3.13-.95c-8.88-3.06-13.55-9.5-14.42-18.63-1-10.24,1.76-18.91,11.65-23.89,8-4,29.25-7.45,33.35-8.09a1,1,0,0,0,.82-.81,19,19,0,0,0,.27-2c.36-4.19.1-8.21-4-10.77a20.06,20.06,0,0,0-10.29-2.87c-7.06-.24-14,.82-21,1.65-1.29.15-3.6.38-5,.51a1,1,0,0,1-1.09-1V515.62a2.56,2.56,0,0,1,2.13-2.53c2-.35,5.12-.85,8.06-1.1,9.69-.91,19.32-1.7,29,.06,15.14,2.73,22.48,11.15,22.52,26.5q0,16.29,0,32.6c0,3.87-.69,7.65,3.58,8.87a5.71,5.71,0,0,0,.91.29,2.82,2.82,0,0,1,2.15,2.76v9.43a2.79,2.79,0,0,1-2.79,2.79h-2.71C242.82,595.29,235.94,595.33,232.69,587.29Zm-3.51-28.86a1,1,0,0,0-1.24-1c-6.07,1.45-11.4,2.64-16.66,4.07-5.44,1.48-8.46,5-7.89,10.87s5,6.87,9.69,7.16c11.77.73,16-3.28,16.1-15.11C229.19,562.56,229.18,560.67,229.18,558.43Z" transform="translate(-70 -258.55)"/><circle cx="149.75" cy="232.2" r="17.5"/><circle class="cls-4" cx="149.75" cy="232.2" r="7"/><path class="cls-1" d="M338.41,482H320.6a1.59,1.59,0,0,0-1.6,1.6v25.83a2.5,2.5,0,0,1-2.58,2.5c-3.2-.11-8.79-.37-13.44-.95-23.66-3-34.66,8.28-34.7,31.71q0,11.31,0,22.61c0,23.8,7.77,31.63,31.84,31.79a99.42,99.42,0,0,0,18.5-1.29c15.85-2.93,21.15-9.3,21.43-25.29.22-12.85,0-25.72,0-38.58,0-12-.07-41.21-.09-48.34A1.59,1.59,0,0,0,338.41,482ZM319,575.59a2.12,2.12,0,0,1-1.38,2c-3.33,1.26-7.63,3.42-12.46,3.42h-4.32A13.88,13.88,0,0,1,287,567.16V541.84a13.87,13.87,0,0,1,12.73-13.78,29.2,29.2,0,0,1,4.65-.32,67.85,67.85,0,0,1,12.52,1.76,2.7,2.7,0,0,1,2.1,2.63Z" transform="translate(-70 -258.55)"/><path class="cls-4" d="M557.39,266.63H563a12,12,0,0,1,12,12v30.08a13,13,0,0,1-13,13h-5.6a12,12,0,0,1-12-12V279.63A13,13,0,0,1,557.39,266.63Z"/><rect class="cls-2" x="833" y="236.45" width="141" height="16" rx="1.24"/><path class="cls-4" d="M981,311.09V300.75a1.75,1.75,0,0,1,1.75-1.75H994.3a1.7,1.7,0,0,0,1.7-1.7V285.7a1.7,1.7,0,0,0-1.7-1.7H982.75a1.75,1.75,0,0,1-1.75-1.75V270.7a1.7,1.7,0,0,0-1.7-1.7H967.7a1.7,1.7,0,0,0-1.7,1.7v11.55a1.75,1.75,0,0,1-1.75,1.75H953.7a1.7,1.7,0,0,0-1.7,1.7v11.6a1.7,1.7,0,0,0,1.7,1.7h10.55a1.75,1.75,0,0,1,1.75,1.75v10.68a23,23,0,1,0,15-.34Z" transform="translate(-70 -258.55)"/><circle class="cls-3" cx="904" cy="74.45" r="10"/></svg>
